<svg xmlns="http://www.w3.org/2000/svg" viewBox="0 0 512 512"><path d="M105 0C88.462 0 75 13.462 75 30v30c0 16.538 13.462 30 30 30s30-13.462 30-30V30c0-16.538-13.462-30-30-30zm151 0c-16.538 0-30 13.462-30 30v30c0 16.538 13.462 30 30 30s30-13.462 30-30V30c0-16.538-13.462-30-30-30zm151 0c-16.538 0-30 13.462-30 30v30c0 16.538 13.462 30 30 30s30-13.462 30-30V30c0-16.538-13.462-30-30-30zM0 181v286c0 24.814 20.186 45 45 45h422c24.814 0 45-20.186 45-45V181H0zm181 240c-33.091 0-60-26.909-60-60 0-8.291 6.709-15 15-15s15 6.709 15 15c0 16.538 13.462 30 30 30s30-13.462 30-30-13.462-30-30-30h-15a14.983 14.983 0 01-13.857-9.258 14.984 14.984 0 013.252-16.348L189.789 271H136c-8.291 0-15-6.709-15-15s6.709-15 15-15h90a14.983 14.983 0 0113.857 9.258 14.984 14.984 0 01-3.252 16.348l-37.266 37.266C223.48 311.635 241 334.311 241 361c0 33.091-26.909 60-60 60zm225-.001H286c-8.291 0-15-6.709-15-15s6.709-15 15-15h45V292.21l-34.395 34.395c-5.859 5.859-15.352 5.859-21.211 0s-5.859-15.352 0-21.211l60-60a14.93 14.93 0 0116.348-3.252A14.984 14.984 0 01361 255.999v135h45c8.291 0 15 6.709 15 15s-6.709 15-15 15z"/><path d="M467 36.357V60c0 33.091-26.909 60-60 60s-60-26.909-60-60V30h-31v30c0 33.091-26.909 60-60 60s-60-26.909-60-60V30h-31v30c0 33.091-26.909 60-60 60S45 93.091 45 60V36.357C18.56 47.964 0 74.324 0 105v46h512v-46c0-30.676-18.56-57.036-45-68.643z"/></svg>