<svg viewBox="0 0 512 512" xmlns="http://www.w3.org/2000/svg"><path d="M307 175V81h-88.543L173.834 7.236A14.998 14.998 0 00161 0H82c-8.284 0-15 6.716-15 15v66H15C6.716 81 0 87.716 0 96v64c0 8.284 6.716 15 15 15zM97 204.991v66.394l113.818-66.394zm126 27.624l-126 73.5v53.27l126-73.5zm23.071 194.189A15 15 0 00232 417h-9v-96.385l-126 73.5V417h-9a15 15 0 00-14.071 9.804l-24 65C46.317 501.587 53.564 512 64 512h192c10.429 0 17.686-10.406 14.071-20.196zM497 81h-36v94h36c8.284 0 15-6.716 15-15V96c0-8.284-6.716-15-15-15zm-33 233h-16.19L399 244.272V208h17c8.281 0 14.995-6.711 15-14.991V63.991C430.995 55.711 424.281 49 416 49h-64c-8.284 0-15 6.716-15 15v129c0 8.284 6.716 15 15 15h17v36.272L320.19 314H304c-8.284 0-15 6.716-15 15v80c0 8.284 6.716 15 15 15h160c8.284 0 15-6.716 15-15v-80c0-8.284-6.716-15-15-15zm-107.19 0L384 275.157 411.19 314z"/></svg>