<svg data-name="icons [expand]" xmlns="http://www.w3.org/2000/svg" viewBox="0 0 274.55 272.85"><path d="M49.63 174.71l-4.56-4.56-14.69 14.68-3.77-3.77-4.56 4.57 8.33 8.33 19.25-19.25zm12.17.21h27.1v6.45H61.8zm-17.17 20.36H88.9v6.45H44.63zm-23.05 20.36H88.9v6.45H21.58zm0 20.36H88.9v6.45H21.58zM185.15 52.18a3.22 3.22 0 00-3.85-2.46 144.79 144.79 0 01-65 0 3.23 3.23 0 00-1.39 6.31 151.68 151.68 0 0067.74 0 3.24 3.24 0 002.5-3.85z"/><path d="M245.48 177.25l-53.09-28.58a15.39 15.39 0 01-8.07-13.52v-17c5.46-8 8.8-16.46 9.78-22.21 5.65-.2 10.19-5.33 10.19-11.61v-4.62a11.75 11.75 0 00-6.37-10.65c-.07-1.93-.25-3.87-.49-5.79 6.18-2 9.92-3.63 10.31-3.8l2.59-1.16-5.06-16.94-5.92 1.91c-6.17-15.49-17.18-27.5-30.66-33.61-.71-5.46-5-9.68-10.13-9.68H139.1c-5.16 0-9.41 4.21-10.13 9.67-13.42 6.1-24.42 18.12-30.63 33.63l-6-1.91-5.06 16.9 2.59 1.16c.4.17 4.16 1.82 10.39 3.82-.22 1.93-.48 3.87-.54 5.76a11.75 11.75 0 00-6.42 10.66v4.62c0 6.28 4.54 11.41 10.2 11.61 1 5.76 4.32 14.27 9.8 22.26v17a15.12 15.12 0 01-5.22 11.35l-26.5-26.5h-75a6.67 6.67 0 00-6.67 6.67v139.49a6.67 6.67 0 006.67 6.67h99.11a6.67 6.67 0 006.67-6.67V253.3l9.19 13.65 5.4-3.58-14.5-21.68v-48.75l32 73.51h8.76l46.34-106.59 7.42 4 2.14 28.33-24.28 12 13.55 17.77-27.65 41.41 5.37 3.59 30.24-45.25-11.6-15.21 21.16-10.46-2.15-28.55 28.67 15.44a48.74 48.74 0 0125.68 43v39.25h6.45v-39.27a55.19 55.19 0 00-29.07-48.66zM96.69 49.54l5.6 1.8 1-3c4.93-14.12 14.09-25.33 25.49-31.48v12.92a3.23 3.23 0 106.45 0v-18.5c0-2.62 1.76-4.83 3.83-4.83h19.49c2.11 0 3.83 2.17 3.83 4.83v18.53a3.23 3.23 0 106.45 0V16.9c11.42 6.16 20.59 17.36 25.52 31.47l1 3 5.58-1.8 1.51 5.06a149.11 149.11 0 01-107.32 0zm7.21 39.93c-2.26 0-4.09-2.32-4.09-5.17v-4.62c0-2.55 1.6-4.8 3.64-5.11l2.73-.51v-2.77c0-2 .14-4.08.35-6.18a153.87 153.87 0 0084.61 0 59.28 59.28 0 01.41 6.26v2.76l2.73.43c2 .31 3.61 2.56 3.61 5.11v4.62c0 2.85-1.84 5.17-4.1 5.17h-5.84v3.22c0 8.66-14.25 40.44-39.15 40.44s-39.11-31.75-39.11-40.43v-3.22zm44.9 50.11c11.94 0 21.68-5.8 29.06-13.46v9a21.75 21.75 0 003.13 11.25l-32.15 28.85-32.2-28.85a21.6 21.6 0 003.16-11.23v-9c7.37 7.67 17.1 13.44 29 13.44zm6.21 62.49h-12.78l-5.68-8.64 12.32-9.74 12.06 9.52zm-71.46-71.08l17.85 17.85-17.85-.15zM6.46 266.18l.21-139.75h70.4v22.26a6.67 6.67 0 006.67 6.67h22.25l-.21 111zm105.99-114.81h.1l31.29 28-22.51 17.8-8.88-20.41zm19 46.06l5.68 8.57-3.4 19.55-9.69-22.28zm17.38 62.94l-10.44-24 4.82-27.81h10.78l5 28.54zm14.81-34l-3.53-20.25 5.85-8.84 7.69 6.07zm12.67-29.14l-22.48-17.75 31.29-28.11a21.78 21.78 0 004.2 3l4.55 2.45z"/></svg>