<svg xmlns="http://www.w3.org/2000/svg" width="150" height="150" viewBox="0 0 150 150">
  <defs>
    <style>
      .cls-1 {
        fill-rule: evenodd;
      }
    </style>
  </defs>
  <path d="M1057.47,2790.23v-47.25H958.53v47.25L933,2809.01v83.97h150v-83.97Zm-72.476,55.79-43.206,33.59v-60.46Zm23.006-6.75,57.79,44.92H950.209Zm23,6.75,43.21-26.87v60.46Zm39.77-35.09-13.3,8.28v-18.07Zm-22.09-59.16v72.91l-25.07,15.59L1008,2828.14l-15.608,12.13-25.072-15.59v-72.91h81.36Zm-90.15,67.44-13.306-8.28,13.306-9.79v18.07Zm32.859-23.08-4.286,4.28,6.215,6.21,4.286-4.28a19.734,19.734,0,0,0,6,2.49v6.06h8.79v-6.06a19.632,19.632,0,0,0,6-2.49l4.29,4.28,6.21-6.21-4.28-4.28a19.793,19.793,0,0,0,2.49-6.01h6.06v-8.78h-6.06a19.793,19.793,0,0,0-2.49-6.01l4.28-4.28-6.21-6.22-4.29,4.29a19.149,19.149,0,0,0-6-2.49v-6.06h-8.79v6.06a19.245,19.245,0,0,0-6,2.49l-4.286-4.29-6.215,6.22,4.286,4.28a19.6,19.6,0,0,0-2.491,6.01h-6.055v8.78H988.9A19.6,19.6,0,0,0,991.389,2796.13ZM1008,2774.91a10.815,10.815,0,1,1-10.815,10.82A10.832,10.832,0,0,1,1008,2774.91Z" transform="translate(-933 -2742.97)"/>
</svg>
