<svg data-name="icons [expand]" xmlns="http://www.w3.org/2000/svg" viewBox="0 0 278.59 278.59"><path d="M264.51 196.41a48.07 48.07 0 00-36.41-14c.61-1.26 1.22-2.51 1.77-3.78l-6-2.62c-.71 1.63-1.59 3.19-2.41 4.79l-53.63-53.59 43.25-45.56c1.28 1.59 2.61 3.17 3.77 4.81l5.36-3.76c-1.41-2-2.94-4-4.53-5.9l20.23-21.31 20.13-1.45 19.2-39.24-11.49-11.49-39.24 19.2-1.45 20.14-71.69 68-53.6-53.6a90.31 90.31 0 0113.89-5.8l-2-6.25a96.24 96.24 0 00-13.52 5.65A48 48 0 0033.28 2.37l-5.11 1.64 32.32 32.33-5.11 19.06-19.07 5.12L3.98 28.19 2.35 33.3a48 48 0 0048.21 62.87 96.37 96.37 0 00-4.42 10.37l6.17 2.17a90 90 0 014.79-10.94l41 41-41.3 41.3a90.53 90.53 0 01-5.66-13.91l-6.27 1.9a98.26 98.26 0 007.05 16.9L5.07 231.65l-.7.71-.19 1c-.23 1.12-1.7 11.42 14 27.08 12.58 12.58 21.7 14.1 25.38 14.1a9.92 9.92 0 001.71-.13l1-.19 47.51-47.5a98.16 98.16 0 0016.89 7.05l1.91-6.27a91.71 91.71 0 01-13.92-5.67l41.3-41.3 41 41a91.68 91.68 0 01-10.95 4.79l2.17 6.17a97.61 97.61 0 0010.37-4.43 48 48 0 0047.94 50.56 48.82 48.82 0 0014.93-2.34l5.11-1.64-32.33-32.33 5.12-19.06 19.06-5.12 32.33 32.33 1.64-5.11a48.11 48.11 0 00-11.84-48.94zm-35.1-150.76l1.36-18.9 31.65-15.49 4.88 4.88-15.47 31.67-18.9 1.36-78.17 82.35a32.45 32.45 0 00-3.5-4.18 34.25 34.25 0 00-4.18-3.51zm-172.07 43l-1.7.31A41.55 41.55 0 017.23 40.65l27.12 27.12 26.37-7.07 7.11-26.35L40.72 7.23a41.54 41.54 0 0148.31 48.42l-.31 1.69 57.9 57.9-5.47 5.19a50.74 50.74 0 00-18.9-4.53h-1.38l-18.19 18.19zM43.18 267.97c-2.22-.12-8.66-1.38-18-9.93L127.83 155.4l-4.63-4.63L20.54 253.41c-8.59-9.4-9.82-15.85-9.94-18l108.57-108.58 20.38 20.38a3.28 3.28 0 004.64-4.63l-20-20c4.4.42 15.19 2.16 22.42 9.38 7.6 7.6 9.15 19.23 9.46 23.12zm228.18-30.06l-27.13-27.12-26.4 7.07-7 26.37 27.12 27.12a41.54 41.54 0 01-48.35-48.41l.31-1.69-45.35-45.35 18.19-18.18v-1.38a50.54 50.54 0 00-4.53-18.91l5.19-5.47 57.9 57.9 1.69-.31a41.56 41.56 0 0148.42 48.36z"/><path d="M79.46 74.82a3.28 3.28 0 00-4.63 4.63l33.15 33.2a3.27 3.27 0 004.63-4.62zm90.94 90.94a3.28 3.28 0 00-4.64 4.63l33.37 33.37a3.274 3.274 0 104.63-4.63zM150.13 47.74l.76-6.5a101.15 101.15 0 00-20.8-.25l.6 6.52a94.28 94.28 0 0119.44.23zm39.92 6.91a98.31 98.31 0 00-18.87-8.77l-2.11 6.2a91.05 91.05 0 0117.6 8.18zm-58.47 176.5l-.55 6.5c2.73.23 5.51.34 8.26.34a100.72 100.72 0 0012.53-.78l-.81-6.5a93.58 93.58 0 01-19.43.44zM41.35 126.76a100.25 100.25 0 00-.78 12.53c0 2.73.12 5.51.34 8.26l6.52-.54c-.2-2.54-.31-5.12-.31-7.72a94.76 94.76 0 01.73-11.71zm188.66-26.49l-6 2.6a91.75 91.75 0 015.62 17.89l6.42-1.31a99.08 99.08 0 00-6.04-19.18zm8.01 39.17h-6.55a92.64 92.64 0 01-1.92 18.67l6.42 1.32a99.68 99.68 0 002.05-19.99z"/></svg>