<svg data-name="Layer 1" xmlns="http://www.w3.org/2000/svg" viewBox="0 0 53.74 63.62"><path d="M24.03 44.99c-5.35-5.13-11-13.2-12.73-20.87a3 3 0 011.4-3.23l5.8-3.52a3 3 0 001.42-3.11L18.15 4.04a3 3 0 00-3-2.52H5.22a3 3 0 00-3 2.57c-4.46 28.17 12.43 50.9 35.27 57.9a3 3 0 003.47-1.31l4.92-8a3 3 0 00-.73-4l-8.57-6.69a3 3 0 00-3.55-.13l-5.2 3.47a3 3 0 01-3.8-.34zm5.06-30.27a38.45 38.45 0 0113.8 21.92M29.57 4.15a47.54 47.54 0 0122.67 33.52" fill="none" stroke="#000" stroke-linecap="round" stroke-linejoin="round" stroke-width="3"/></svg>