<svg xmlns="http://www.w3.org/2000/svg" viewBox="0 0 289 217.8" fill="#fff"><path d="M0 49.2v6.9h38.1v10.6l13 13.8h24.5l7.4 7.4h8.5v3.3h34.3v15.3h22.7l37.2 37v24.4c0 13.5-10.9 24.4-24.4 24.4h-3.4v25.6h104v-25.6h-3.4c-7.5 0-13.6-6.1-13.6-13.7V145c3.5-1.1 5.9-4.3 5.9-8v-30.6h6.3l13.8-13.8v-5.1c4.4-2.9 8.1-6.7 11.1-11.1 12.8-18.9 7.9-44.7-11.1-57.6v-5.1L257 0H125.8v14.3H91.5v4.3H83l-7.5 7.3H51L38 39.7v9.6l-38-.1zm282.1 4c0 9.8-4.1 19.1-11.3 25.6V27.7c7.2 6.5 11.3 15.8 11.3 25.5zm-31.3 46.3V6.8h3.4l9.8 9.8v73.2l-9.8 9.8-3.4-.1zm-86.1 99.4c15.8-1.8 27.8-15.1 27.8-31.1v-22.4H238v33.2c0 10 7.2 18.5 17.1 20.2v12.1h-90.3l-.1-12zm-6.5-92.5h85.7V137c0 .8-.7 1.5-1.5 1.5h-51.9l-32.3-32.1zM132.7 6.9h13.8v7.5h6.9V6.9H244v92.7h-90.6V35.5H177v-6.9h-30.5v71h-13.8V6.9zM98.4 21.1h27.4v63.2H98.4V21.1zm-18 9.7l5.4-5.4h5.7V81h-5.7l-5.4-5.4V30.8zM44.9 42.4l9.1-9.6h19.5v40.8H54L44.9 64V42.4z"/><path d="M58.3 36.8H68v6.9h-9.7zm0 12.4H68v6.9h-9.7zm0 12.5H68v6.9h-9.7zM207 14.3h29.7v6.9H207zm0 23.6h29.7v6.9H207zm0 23.7h29.7v6.9H207zm0 23.7h29.7v6.9H207zm-5.8 68.1h28.1v6.9h-28.1zm-78.7 11.9l-8 9.3v20.7h23v-20.7l-8.1-9.2v-36.2h-6.9v36.1zm-1.2 11.9l4.6-5.3 4.6 5.3v11.3h-9.2v-11.3zm-35.7-11.9l-8 9.3v20.7h23v-20.7l-8-9.3v-36.2h-6.9l-.1 36.2zm-1.2 11.9l4.6-5.3 4.6 5.3v11.3h-9.2v-11.3zm-24.1-50.5H43.5v6.8h5v18h6.9v-18h4.9zm-31 0H12.6v6.8h4.9v18h6.9v-18h4.9zm31 39.5H43.5v6.8h5v18h6.9v-18h4.9zm-31 0H12.6v6.8h4.9v18h6.9v-18h4.9z"/></svg>