<svg xmlns="http://www.w3.org/2000/svg" viewBox="0 0 283.38 287.14" fill="#fff"><path d="M162.99 227.79H29.67a29.68 29.68 0 000 59.35h133.32a29.68 29.68 0 100-59.35zm0 52.6H29.67a22.93 22.93 0 010-45.85h133.32a22.93 22.93 0 110 45.85z"/><path d="M32.54 241.25a16.22 16.22 0 1016.21 16.24 16.24 16.24 0 00-16.21-16.24zm0 25.68a9.47 9.47 0 119.45-9.44 9.48 9.48 0 01-9.45 9.44zm42.54-25.68a16.22 16.22 0 1016.21 16.24 16.23 16.23 0 00-16.21-16.24zm0 25.68a9.47 9.47 0 119.47-9.46 9.47 9.47 0 01-9.47 9.46zm42.54-25.68a16.22 16.22 0 1016.22 16.24 16.23 16.23 0 00-16.22-16.24zm0 25.68a9.47 9.47 0 119.47-9.44 9.48 9.48 0 01-9.47 9.44zm42.55-25.68a16.22 16.22 0 1016.21 16.24 16.23 16.23 0 00-16.21-16.24zm0 25.68a9.47 9.47 0 119.46-9.46 9.48 9.48 0 01-9.46 9.46zm13.64-115.05l-26.54-22.17H111.5v49.65h62.31zm-6.75 20.73h-48.81v-36.12h26.57l22.24 18.58zM25.65 145.38h35.09v6.75H25.65zm0 21.31h35.09v6.75H25.65zm0 21.31h35.09v6.75H25.65zm154.9-158.37a6.86 6.86 0 10-9.69 0 6.86 6.86 0 009.69 0z"/><path d="M280.77 159.22a15.17 15.17 0 00-12.57-23.68c-.18 0-.36.05-.54.06L200.47 25v-.22a24.76 24.76 0 00-47.62-9.58l-98.72 98.68H19.06L4.44 128.49v77.34l7.43 7.87h-8.5v6.79h186v-6.75h-8.48l7.42-7.85v-60.8l-37.35-31.2h-34.97l62.94-62.93 75.15 94.37a14.54 14.54 0 00.6 12.11h-26.5l-8-8h-15.62l-.83 2.17a38.53 38.53 0 00-2.45 13.8 40 40 0 1080 0 39.44 39.44 0 00-.29-4.92c-.06-.46-.15-.86-.22-1.27zm-4.14-8.5a8.43 8.43 0 11-8.43-8.43 8.44 8.44 0 018.43 8.43zm-15.72-13.23a15.59 15.59 0 00-2.86 2l-73.06-91.74a24.57 24.57 0 0013.44-13.12zM162.99 12.02a18.01 18.01 0 0125.47 25.47 18.47 18.47 0 01-25.4.09l-.2-.2a18.05 18.05 0 01.13-25.36zM11.18 203.16V131.3l10.67-10.67h32.29l24.05 24.27v68.81h-57zm73.81 10.55v-86.22a6.82 6.82 0 016.81-6.81h5.19v93.07zm96.58-65.46v54.93l-10 10.53h-67.79v-93.07h44.69zm-89.82-34.36a13.57 13.57 0 00-13.56 13.6v7.86l-17.88-18 90.79-90.86a24.49 24.49 0 004.95 13.17L104.5 91.18a3.373 3.373 0 104.77 4.77l51.55-51.46a24.35 24.35 0 0010.38 4.65l-64.77 64.75zm149.53 84.77a33.3 33.3 0 01-33.29-33.29 32.73 32.73 0 011.28-9.23h8.07l8 8h36a14.66 14.66 0 0013.14.32v.87a33.31 33.31 0 01-33.2 33.33z"/></svg>