<svg id="Capa_1" data-name="Capa 1" xmlns="http://www.w3.org/2000/svg" viewBox="0 0 486.4 512"><defs><style>.cls-1{fill:#46b29d}.cls-2{fill:#ff5364}.cls-4{fill:#fff}.cls-5{fill:#f0c419}</style></defs><path class="cls-1" d="M251.41 503.47C519.53 388.56 485.06 143 475.2 94a8.49 8.49 0 00-10.41-6.51c-124.91 29.14-186.51-39.26-206-67.49a8.53 8.53 0 00-14.14 0c-19.56 28.2-81.36 96.62-206.3 67.41A8.49 8.49 0 0027.94 94c-9.86 49-44.33 294.61 223.79 409.52z" transform="translate(-12.8)"/><path class="cls-2" d="M251.57 466C52.4 373.13 49.28 198.14 57.53 125.78a274 274 0 0039.12 2.89 210.48 210.48 0 00155-63.82 209.93 209.93 0 00154.81 63.81 273.71 273.71 0 0039.1-2.9c8.3 72.39 5.18 247.37-193.99 340.24z" transform="translate(-12.8)"/><path d="M251.56 474.55a8.43 8.43 0 01-3.59-.8 431.33 431.33 0 01-56.51-31.44 8.53 8.53 0 119.43-14.22 414.23 414.23 0 0050.67 28.49c184.86-88.1 193.71-247.79 186.74-321.25a279.49 279.49 0 01-31.81 1.88 8.54 8.54 0 110-17.07 266 266 0 0038.13-2.84 8.53 8.53 0 019.69 7.42c8.8 73 7 253-199.14 349a8.5 8.5 0 01-3.61.83zm-116.12-82.02a8.45 8.45 0 01-6.26-2.73 305.14 305.14 0 01-75.31-148.58A375.37 375.37 0 0149 124.8a8.52 8.52 0 019.69-7.48 264.9 264.9 0 0038 2.82 201.21 201.21 0 00148.79-61 8.78 8.78 0 0112.27 0 195.68 195.68 0 0081.92 51 8.53 8.53 0 11-5.19 16.25 212.08 212.08 0 01-82.88-49.27 218.2 218.2 0 01-154.93 60.09 279.92 279.92 0 01-31.58-1.85A357.51 357.51 0 0070.6 237.8a288.47 288.47 0 0071.1 140.4 8.52 8.52 0 01-6.26 14.33z" transform="translate(-12.8)" fill="#65ddb9"/><path class="cls-4" d="M192 324.27a8.54 8.54 0 01-6-14.57l119.43-119.47a8.54 8.54 0 0112.07 12.07L198 321.77a8.53 8.53 0 01-6 2.5z" transform="translate(-12.8)"/><path class="cls-4" d="M311.47 324.27a8.54 8.54 0 01-6-2.5L186 202.3a8.53 8.53 0 0112-12.07L317.5 309.7a8.54 8.54 0 01-6 14.57z" transform="translate(-12.8)"/><path class="cls-5" d="M251.73 358.4h-68.26a8.54 8.54 0 110-17.07h68.26a8.54 8.54 0 110 17.07zm68.27 0h-34.13a8.54 8.54 0 110-17.07H320a8.54 8.54 0 010 17.07z" transform="translate(-12.8)"/><path class="cls-1" d="M46.93 469.33a8.53 8.53 0 01-8.53-8.53v-51.2a8.54 8.54 0 0117.07 0v51.2a8.53 8.53 0 01-8.54 8.53z" transform="translate(-12.8)"/><path class="cls-1" d="M72.53 443.73h-51.2a8.53 8.53 0 010-17.06h51.2a8.53 8.53 0 110 17.06z" transform="translate(-12.8)"/><path class="cls-5" d="M465.07 512a8.53 8.53 0 01-8.54-8.53v-51.2a8.54 8.54 0 1117.07 0v51.2a8.53 8.53 0 01-8.53 8.53z" transform="translate(-12.8)"/><path class="cls-5" d="M490.67 486.4h-51.2a8.54 8.54 0 110-17.07h51.2a8.54 8.54 0 010 17.07z" transform="translate(-12.8)"/><path class="cls-2" d="M439.47 51.2a8.53 8.53 0 01-8.54-8.53V8.53a8.54 8.54 0 0117.07 0v34.14a8.53 8.53 0 01-8.53 8.53z" transform="translate(-12.8)"/><path class="cls-2" d="M456.53 34.13H422.4a8.53 8.53 0 110-17.06h34.13a8.53 8.53 0 110 17.06z" transform="translate(-12.8)"/></svg>