<svg xmlns="http://www.w3.org/2000/svg" width="150" height="150" viewBox="0 0 150 150">
  <defs>
    <style>
      .cls-1 {
        fill-rule: evenodd;
      }
    </style>
  </defs>
  <path id="icon" class="cls-1" d="M1338.23,2938.4a56.676,56.676,0,0,1-36.65-36.65l11.68-3.22v-35.49H1270v21.63a85.287,85.287,0,0,0,85.31,85.31h21.62v-43.26h-35.49Zm9.91-2.89h20v25.68h-12.83a76.513,76.513,0,0,1-76.52-76.52v-12.83h25.68v20l-13.55,3.73,0.98,4.13a65.329,65.329,0,0,0,48.38,48.38l4.13,0.98Zm49.89-93.56a74.985,74.985,0,0,0-106.06,0l6.21,6.21a66.213,66.213,0,0,1,93.64,93.64l6.21,6.21A74.985,74.985,0,0,0,1398.03,2841.95Zm-42.37,44.56v-26.39h-26.38v8.79h17.59v8.81h-17.59v26.38h26.39v-8.79h-17.6v-8.8h17.59Zm26.4-8.79h-8.8v-17.6h-8.79v26.39h17.59v17.6h8.79v-43.99h-8.79v17.6Z" transform="translate(-1270 -2819.97)"/>
</svg>
