<svg id="Layer_1" data-name="Layer 1" xmlns="http://www.w3.org/2000/svg" viewBox="0 0 512.46 512"><defs><style>.cls-1{fill:#e15649}</style></defs><path class="cls-1" d="M188.91 251.59l59.15-65.33L70.62 7.94a27.71 27.71 0 00-38.84 0L7.94 31.78a27.71 27.71 0 000 38.84z" transform="translate(.46)"/><path d="M469.63 506.7L512 512l-6.18-43.26L467 442.26l-24.72 25.6z" transform="translate(.46)" fill="#c3c7cb"/><path d="M281.6 306.32l161.54 161.54 24.72-24.72L306.32 281.6z" transform="translate(.46)" fill="#e0e0e0"/><path d="M194.21 203a8 8 0 01-6.18-2.64L38 50.32A8.74 8.74 0 0150.32 38l150.07 150a8.54 8.54 0 010 12.36 8 8 0 01-6.18 2.64" transform="translate(.46)" fill="#bc342e"/><path d="M281.6 147.42c20.3-20.3 22.95-52.08 1.77-73.27C241.88 32.66 218 37.08 171.26 37.08c70.62-30.9 121.82-38 173-14.13 22.06 9.71 30.89 18.54 48.55 36.19l31.78 31.78a54.63 54.63 0 0115 29.14c2.65 16.77-1.76 20.3 9.71 32.66a8.54 8.54 0 0012.36 0 8.54 8.54 0 0112.36 0l30.9 30.89a17.07 17.07 0 010 24.72L442.26 271a17.07 17.07 0 01-24.72 0l-29.13-30a8.54 8.54 0 010-12.36 9.6 9.6 0 000-13.24c-12.35-12.36-15.89-7.94-32.66-9.71a51.69 51.69 0 01-29.13-15l-45-43.26" transform="translate(.46)" fill="#7f7c79"/><path d="M281.6 147.42L7.94 453.74c-10.59 10.59-11.47 28.25-.88 38l12.36 12.36c10.59 10.59 27.37 9.71 38-.89L331.92 196z" transform="translate(.46)" fill="#565656"/><path class="cls-1" d="M238.34 300.14l24.72 24.72 62.68-62.68-28.25-28.25z" transform="translate(.46)"/></svg>