<svg data-name="icons [expand]" xmlns="http://www.w3.org/2000/svg" viewBox="0 0 301.23 280.82"><path d="M37.66 224.98a21.87 21.87 0 1021.86 21.9 21.89 21.89 0 00-21.86-21.9zm0 36.65a14.79 14.79 0 1114.81-14.75 14.81 14.81 0 01-14.81 14.75zm126.95 7.08a13.84 13.84 0 10-13.84-13.83 13.85 13.85 0 0013.84 13.83zm0-20.6a6.76 6.76 0 11-6.76 6.76 6.77 6.77 0 016.76-6.76z"/><path d="M272.98 222.23c0-24.3 18.32-42.08 26.19-48.6a5.63 5.63 0 00-3.59-10h-23l-45.2 45.25-24-40.7.57-.34a7.62 7.62 0 002.69-10.44l-8.94-15.17h21.62a3.75 3.75 0 013.8 3.79v39.64a3.54 3.54 0 007.08 0v-39.64a10.85 10.85 0 00-9.55-10.74v-49.4a3.54 3.54 0 00-1-2.5L201.07 64.8a3.54 3.54 0 00-6 2.5v67.88h-1.6l-6.81-11.55a8.78 8.78 0 00-12-3.11l-5.19 3.03a8.73 8.73 0 00-3.32 11.6h-14.18l-26.81-68.71H32.91v67.27H7.47v93.89a32.51 32.51 0 0025 53.22h135.89a24.93 24.93 0 0014.23-45.39l-2.93-2h45.52l47.41 47.41h23a5.62 5.62 0 003.59-10c-7.88-6.52-26.2-24.3-26.2-48.61zM202.04 75.82l11.51 11.5v47.83h-11.51zm-29.75 54.88a1.69 1.69 0 01.78-1.05l5.19-3.06a1.75 1.75 0 011.3-.18 1.73 1.73 0 011 .79l19.92 33.8a.59.59 0 01-.19.74l-7.2 4.25a.54.54 0 01-.74-.2l-19.88-33.8a1.68 1.68 0 01-.18-1.29zm-2 11.53l16 27.16a7.64 7.64 0 0010.44 2.7l.53-.31 23.21 39.29H147.6l-13.55-9.43h64.42a3.54 3.54 0 100-7.08h-23.32l-20.42-52.33zm-50-68.71l47.23 121h-43.65l-18.69-13a26.42 26.42 0 00-29.62-.38l-1.48 1v-21.26l-34.05-25.62V73.52zm-84.74 67.27l31.42 23.63v22.38l-52.28 34.36-.13.1v-80.47zm143 100.45a17.85 17.85 0 01-10.19 32.5H32.47a24.9 24.9 0 01-24.3-18.11c-2.51-8.37-1.29-20.87 10.39-28.56l60.84-40a19.34 19.34 0 0121.7.27l34.06 23.7h-33a14.33 14.33 0 002.13-7.47 14.56 14.56 0 10-14.55 14.55H223.1v8.16H89.81a21.41 21.41 0 1015.66 7.11h61.8zm-88.74-30.17a7.48 7.48 0 117.47-7.47 7.48 7.48 0 01-7.47 7.47zm14.11 36.44a14.12 14.12 0 11-14.11-14.12 14.13 14.13 0 0114.11 14.12zm171.6 26.21l-45.34-45.33v-12.31l45.34-45.34h16.17c-9.57 8.66-25.79 27-25.79 51.49s16.22 42.83 25.79 51.49z"/><path d="M111.4 82.62h-61v45h78.57zM57.47 89.7h49.1l12 30.87h-61.1zm25.11 57.36a3.54 3.54 0 003.55 3.54h46.11a3.54 3.54 0 000-7.08H86.13a3.55 3.55 0 00-3.55 3.54zm18.21 17.97a3.53 3.53 0 003.54 3.54h32.77a3.54 3.54 0 100-7.08h-32.77a3.54 3.54 0 00-3.54 3.54zM216.11 50.98a5.38 5.38 0 015.37-5.37h10.45a12.13 12.13 0 0012.12-12.12v-3.54a5.38 5.38 0 015.38-5.38h33.15v-7.08h-33.11a12.47 12.47 0 00-12.46 12.46v3.54a5 5 0 01-5 5h-10.54a12.46 12.46 0 00-12.45 12.45v11.47h7.08zM257.68 1.8h8.4v7.08h-8.4zm-41.57 19.53a12.47 12.47 0 0112.46-12.45h20.25V1.8h-20.25a19.55 19.55 0 00-19.54 19.53v4.77h7.08zM192.48 0h7.08v36.16h-7.08zm0 44.17h7.08v7.85h-7.08zm66.24 2.46a10.16 10.16 0 01-10.15 10.15H230.7v7.1h17.87a17.25 17.25 0 0017.23-17.23 5.75 5.75 0 015.74-5.74h3.59v-7.08h-3.59a12.83 12.83 0 00-12.82 12.8z"/></svg>