<svg version="1.1" id="Слой_1" xmlns="http://www.w3.org/2000/svg" x="0" y="0" viewBox="0 0 2641.2 1438.6" xml:space="preserve"><style>.st0{fill:#0e2029}.st3{fill:#fbae17}.st4{fill:#203b53}.st5{fill:#f26e21}</style><path class="st0" d="M771.6 49.9v705.7h755.5l106.8 88.4-222.6-794.1z"/><path fill="#30bec7" d="M1558.4 810.3L846.6 567.5V101.3h504.9z"/><path fill="#15a1a1" d="M837.5 623.1L1543.2 749 846.6 101.3z"/><path class="st3" d="M111.1 1217.8c-67.4 0-119.2-61.2-110-129.9l83.8-625.2c7.5-56.6 54.5-98.7 110-98.7H1373v853.8H111.1z"/><path class="st0" d="M516.7 796.9c177.2 0 320.8 143.6 320.8 320.8s-143.6 320.8-320.8 320.8-320.8-143.6-320.8-320.8c0-177.1 143.6-320.8 320.8-320.8z"/><path class="st4" d="M516.7 844c151.2 0 273.7 122.6 273.7 273.8s-122.5 273.8-273.7 273.8-273.8-122.6-273.8-273.8c0-151.2 122.6-273.8 273.8-273.8z"/><path class="st3" d="M516.7 948.1c93.8 0 169.7 76 169.7 169.8 0 93.7-76 169.7-169.8 169.7-93.7 0-169.7-76-169.7-169.8.1-93.8 76.1-169.7 169.8-169.7z"/><path class="st0" d="M1466.6 796.9c177.2 0 320.8 143.6 320.8 320.8s-143.7 320.8-320.8 320.8-320.8-143.6-320.8-320.8c0-177.1 143.6-320.8 320.8-320.8z"/><path class="st4" d="M1466.6 844c151.2 0 273.8 122.6 273.8 273.8s-122.6 273.8-273.8 273.8-273.7-122.6-273.7-273.8c-.1-151.2 122.5-273.8 273.7-273.8z"/><path class="st3" d="M1296.9 1117.7c0-93.7 76-169.7 169.7-169.7 93.7 0 169.7 76 169.7 169.7s-76 169.7-169.7 169.7c-93.7.1-169.7-76-169.7-169.7z"/><path class="st0" d="M1074.3 76.3h75.1v517.1h-75.1z"/><path class="st4" d="M720.4 0h752.9v49.9H720.4z"/><path class="st3" d="M1925.2 920.1c-245 362.1-11.3 511.9 131.6 511.9h534.1c27.7 0 50.2-20.3 50.2-45.3s-22.5-45.3-50.2-45.3H2347l-242.8-421.2h-179z"/><path class="st0" d="M1466.6 1054.2c35.2 0 63.6 28.5 63.6 63.6s-28.5 63.6-63.6 63.6-63.6-28.5-63.6-63.6c0-35.2 28.5-63.6 63.6-63.6zm-949.9 0c35.1 0 63.5 28.5 63.5 63.6s-28.4 63.6-63.5 63.6-63.6-28.4-63.6-63.6 28.5-63.6 63.6-63.6z"/><path class="st5" d="M384.1 402.2c-107.9-4.6-199.1 79.2-203.6 187.1-5.2 122 101.5 218.8 222.5 201.9l543.2-76 869.4 463.4c51.2 31.3 118 15.8 150.2-34.8 32.6-51.2 17.5-119.2-33.7-151.9l-899.9-562.4-648.1-27.3z"/><path class="st3" d="M351.3 536.2c30.4 1.3 54 27 52.7 57.4s-27 54-57.4 52.7c-30.4-1.3-54-27-52.7-57.4 1.4-30.4 27-53.9 57.4-52.7zm1522.1 493.7c30.4 0 55 24.6 55.1 55 0 30.4-24.6 55.1-55 55.1s-55.1-24.6-55.1-55 24.6-55 55-55.1z"/><path class="st5" d="M872.9 920.1h239v48.4h-239zm0 109.8h239v48.4h-239z"/></svg>