<svg xmlns="http://www.w3.org/2000/svg" width="43" height="48"><defs><filter id="a" width="71" height="79" x="-14" y="-18" filterUnits="userSpaceOnUse"><feOffset dy="4" in="SourceGraphic" result="FeOffset1097Out"/><feGaussianBlur in="FeOffset1097Out" result="FeGaussianBlur1098Out" stdDeviation="5.76 5.76"/></filter><mask id="b" width="2.06" height="2.05" x="-1.03" y="-1.02"><path fill="#fff" d="M10.4 6.4h22.2v26.2H10.4z"/><path d="M20.664 6.999c5.708-.358 13.862 13.756 9.79 20.46-3.045 5.01-12.959 6.496-17.133 1.297-4.147-5.168.017-13.49 2.448-16.866 1.915-2.658 3.956-4.833 4.895-4.89z"/></mask></defs><g filter="url(#a)"><path fill="none" stroke="#000" stroke-opacity=".15" stroke-width="1.2" d="M20.664 6.999c5.708-.358 13.862 13.756 9.79 20.46-3.045 5.01-12.959 6.496-17.133 1.297-4.147-5.168.017-13.49 2.448-16.866 1.915-2.658 3.956-4.833 4.895-4.89z" mask="url(&quot;#b&quot;)"/><path fill-opacity=".15" d="M20.664 6.999c5.708-.358 13.862 13.756 9.79 20.46-3.045 5.01-12.959 6.496-17.133 1.297-4.147-5.168.017-13.49 2.448-16.866 1.915-2.658 3.956-4.833 4.895-4.89z"/></g><path fill="#fff" d="M20.664 6.999c5.708-.358 13.862 13.756 9.79 20.46-3.045 5.01-12.959 6.496-17.133 1.297-4.147-5.168.017-13.49 2.448-16.866 1.915-2.658 3.956-4.833 4.895-4.89z"/></svg>