<svg xmlns="http://www.w3.org/2000/svg" viewBox="0 0 313.55 214.73" fill="#fff"><path d="M309.86 156.21h-1.07V77.6l-49.08-50h-25.35v-15L221.77.01h-48.39l-19.74 41.16H6.55A6.54 6.54 0 00.02 47.7v12.93a6.45 6.45 0 002.86 5.25v66.8l24.2 24.26-3 3v24.49l3.69 3.68h23.51a30.17 30.17 0 0059.93 0h109a30.16 30.16 0 0059.92 0h29.77l3.69-3.68v-24.49zm-8.44-75.6v75.6H261.1a29.31 29.31 0 00-21.94 0h-40.32V35h57.78zm-198.25 83h125a30.14 30.14 0 00-8 17.12h-109a30.08 30.08 0 00-8-17.15zM7.38 59.81V48.53h150.9l19.74-41.16h40.69l8.27 8.28v12h-35.52v128.56H92.21a29.34 29.34 0 00-22 0H36.83l-26.59-26.6V67.15h171.67v-7.37zm24.07 103.8H59.3a30.14 30.14 0 00-8 17.12H31.45zm49.79 43.79a23 23 0 1122.95-23 23 23 0 01-22.95 22.97zm168.89 0a23 23 0 1122.95-23 23 23 0 01-22.95 22.97zm56-26.67h-26.04a30.21 30.21 0 00-8-17.12h34.1z"/><path d="M165.12 80.94h7.38v42.85h-7.38zm-41.5 0H131v42.85h-7.38zm-41.5 0h7.38v42.85h-7.38zm-41.5 0H48v42.85h-7.38zm239.84-9.28l-22.68-22.72-48.55.24v47.95h71.23zm-7.38 18.14H216.6V56.56l38.14-.19 18.34 18.34zm-63.86 19.59h22.31v7.37h-22.31z"/></svg>