<svg xmlns="http://www.w3.org/2000/svg" width="135" height="150" viewBox="0 0 135 150">
  <defs>
    <style>
      .cls-1 {
        fill-rule: evenodd;
      }
    </style>
  </defs>
  <path id="icon" class="cls-1" d="M661.308,2870.15a48.625,48.625,0,1,0,48.7,48.63A48.724,48.724,0,0,0,661.308,2870.15Zm0,88.46a39.835,39.835,0,1,1,39.9-39.83A39.911,39.911,0,0,1,661.308,2958.61ZM730,2868.85l-18.685-18.66-13.387,13.37a65.833,65.833,0,0,0-19-8.64v-11.15h8.814v-8.79H634.877v8.79h8.814v11.15a66.267,66.267,0,1,0,72.922,27.3Zm-18.685-6.22,6.235,6.22-6.34,6.33q-1.449-1.65-3.013-3.21t-3.222-3.01Zm-58.82-18.86h17.628v9.39a67.261,67.261,0,0,0-17.628,0v-9.39h0Zm8.814,132.42a57.41,57.41,0,1,1,57.506-57.41A57.52,57.52,0,0,1,661.308,2976.19Zm4.4-88.45h-8.8v35.43h26.677v-8.79H665.71v-26.64Z" transform="translate(-595 -2834.97)"/>
</svg>
