<svg version="1.1" id="Capa_1" xmlns="http://www.w3.org/2000/svg" x="0" y="0" viewBox="0 0 506.1 506.2" xml:space="preserve"><style>.st2{fill:#fff}.st4{fill:#fff1ab}</style><path d="M506.1 141.7L364.4 0 236.5 38.8 0 275.3l230.9 230.9 236.5-236.5 38.7-128z" fill="#f90"/><path fill="#f70" d="M506.1 141.7l-70.8-70.8-319.9 319.8 115.4 115.4 236.5-236.5z"/><path class="st2" d="M344.8 161.4c-12.5-12.5-12.5-32.7 0-45.1s32.7-12.5 45.1 0c12.5 12.5 12.5 32.7 0 45.1-12.5 12.4-32.7 12.4-45.1 0z"/><path transform="rotate(-45.001 429.038 77.115)" fill="#0773a4" d="M360.6 62.1h136.9v30H360.6z"/><path class="st2" d="M221.9 304.3l-13.5 13.5-17.1-17.1 12.8-12.8c-11.4-12.8-19.9-27.9-22.7-39.7l30.1-11.6c3.7 13.4 10.6 25.7 20.3 35.7 8.1 8.1 12.7 9.3 15.6 6.4 10.7-10.7-44.9-49-13.2-80.7 13.7-13.7 35.2-15.3 57.8 1.8l13.2-13.2 17.1 17.1-13 13c8.1 9.8 14.5 20.9 17.6 31.6l-29.3 12.1c-4.2-12.7-10-22.6-17.4-30-8.4-8.4-13.4-8.6-16.3-5.7-10.2 10.2 45.3 48.6 14 79.9-13.2 13.3-33.9 15.3-56-.3z"/><path class="st4" d="M312.3 193.8l-34.6 34.6c.8.6 1.6 1.4 2.4 2.3 7.4 7.4 13.2 17.3 17.4 30l29.3-12.1c-3-10.7-9.5-21.8-17.6-31.6l13-13-9.9-10.2zM267.1 239l-23.8 23.8c4.5 7.2 7.2 12.9 4.1 16-2.8 2.8-7.1 1.8-14.6-5.4l-34.5 34.5 10 10 13.5-13.5c22.1 15.5 42.9 13.5 55.9.5 22.8-22.8-.1-49.2-10.6-65.9z"/><path transform="rotate(-45.001 171.294 334.925)" class="st2" d="M156.3 265.6h30v138.7h-30z"/><path transform="rotate(-45.001 195.76 359.391)" class="st4" d="M180.8 324.7h30V394h-30z"/></svg>