<svg data-name="icons [expand]" xmlns="http://www.w3.org/2000/svg" viewBox="0 0 349.09 309.45"><path d="M341.02 139.42h8.07l-19-85.4h-60.35v8.16h53.78l15.39 69.08h-65.09v-19.81h17.62l-32.43-30.92V27.62h-35.19v19.36l-49.27-47-56.66 54H19.04l-19 85.4h8.08v159.5h67.2v10.57h198.5v-10.57h67.2zm-8.16 0v131.57h-59V139.42zM231.98 35.78h18.88v37l-18.88-18zm39.09 67.52h-193l96.52-92zM25.58 62.18h83.76l-51.69 49.27h17.63v19.81h-65.1zm49.7 77.24v131.57h-59V139.42zm-59 151.3v-11.57h59v11.57zm177.62 10.57h-38.67v-57.31h38.63zm8.16 0v-65.51h-54.98v65.47H83.44v-189.8h182.22v189.84zm71.8-10.57v-11.57h59v11.57z"/><path d="M106.54 162.67h31.41v-31.41h-31.41zm8.16-23.25h15.1v15.09h-15.1zm44.14 23.25h31.41v-31.41h-31.41zm8.16-23.25h15.1v15.09H167zm75.55-8.16h-31.37v31.41h31.4zm-8.15 23.25h-15.1v-15.09h15.1zm-127.86 61.86h31.41v-31.41h-31.41zm8.16-23.25h15.1v15.09h-15.1zm44.14 23.25h31.41v-31.41h-31.41zm8.16-23.25h15.1v15.09H167zm75.55-8.16h-31.37v31.41h31.4zm-8.15 23.25h-15.1v-15.09h15.1zm-17.11 74.57h31.4V251.4h-31.4zm8.15-23.25h15.1v15.09h-15.1zM100.4 282.78h31.41V251.4H100.4zm8.16-23.25h15.09v15.09h-15.09zm210.49-104.42h-31.41v31.41h31.41zm-8.16 23.25h-15.1v-15.09h15.1zm8.16 62.17v-31.41h-31.41v31.41zm-23.26-23.25h15.1v15.09h-15.1zM61.46 155.11H30.05v31.41h31.41zm-8.16 23.25H38.18v-15.09h15.09zm8.16 62.17v-31.41H30.05v31.41zm-23.28-23.25h15.09v15.09H38.18z"/></svg>