<svg xmlns="http://www.w3.org/2000/svg" width="1451" height="25"><path fill="#edb509" d="M592.223 25L605.431-.005h1.665L593.887 25zm-8.558 0l13.21-25.005h1.667L585.33 25zm-8.554 0L588.32-.005h1.665L576.777 25zm-8.556 0l13.21-25.005h1.665L568.22 25zM558 25L571.21-.005h1.666L559.666 25zm-8.558 0l13.21-25.005h1.666L551.108 25zm-8.554 0l13.21-25.005h1.666L542.554 25zm-8.554 0L545.541-.005h1.665L534 25zm-8.557 0l13.21-25.005h1.665L525.442 25zm-8.554 0L528.43-.005h1.665L516.888 25zm-8.558 0l13.21-25.005h1.666L508.33 25zm-8.554 0L511.322-.005h1.665L499.777 25zm-8.557 0l13.21-25.005h1.666L491.218 25zM481 25L494.21-.005h1.665L482.665 25zm231.62 0L725.829-.005h1.665L714.284 25zm-8.558 0l13.21-25.005h1.667L705.728 25zm-8.554 0L708.716-.005h1.665L697.174 25zm-8.556 0l13.21-25.005h1.665L688.617 25zm-8.555 0l13.21-25.005h1.666L680.063 25zm-8.558 0L683.05-.005h1.665L671.505 25zm-8.553 0l13.21-25.005h1.665L662.951 25zm-8.555 0L665.94-.005h1.664L654.397 25zm-8.557 0l13.21-25.005h1.665L645.84 25zm-8.554 0L648.827-.005h1.665L637.285 25zm-8.558 0l13.21-25.005h1.666L628.728 25zm-8.554 0L631.72-.005h1.665L620.174 25zm-8.557 0L623.16-.005h1.666L611.615 25zm-8.554 0l13.21-25.005h1.665L603.062 25zm232.333 0L846.937-.005h1.665L835.394 25zm-8.558 0l13.21-25.005h1.666L826.838 25zm-8.554 0L829.826-.005h1.664L818.283 25zm-8.557 0l13.21-25.005h1.665L809.726 25zm-8.554 0l13.21-25.005h1.666L801.172 25zm-8.559 0L804.16-.005h1.666L792.615 25zm-8.553 0l13.21-25.005h1.666L784.06 25zm-8.554 0L787.048-.005h1.665L775.506 25zm-8.558 0L778.494-.005h1.665L766.949 25zm-8.553 0L769.936-.005h1.666L758.394 25zm-8.558 0l13.21-25.005h1.665L749.837 25zm-8.554 0l13.21-25.005h1.666L741.284 25zm-8.558 0L744.27-.005h1.666L732.725 25zm-8.553 0l13.21-25.005h1.665L724.172 25zm231.62 0L967.334-.005H969L955.79 25zm-8.558 0L958.78-.005h1.666L947.235 25zm-8.554 0L950.223-.005h1.664L938.68 25zm-8.557 0l13.21-25.005h1.665L930.123 25zm-8.554 0l13.21-25.005h1.666L921.569 25zm-8.558 0l13.21-25.005h1.666L913.012 25zm-8.554 0l13.21-25.005h1.666L904.458 25zm-8.554 0L907.445-.005h1.665L895.903 25zm-8.558 0L898.891-.005h1.665L887.346 25zm-8.553 0L890.333-.005H892L878.79 25zm-8.558 0l13.21-25.005h1.665L870.234 25zm-8.554 0l13.21-25.005h1.666L861.68 25zm-8.558 0l13.21-25.005h1.666L853.123 25zm-8.553 0l13.21-25.005h1.665L844.569 25zm231.32 0L1087.43-.005h1.666L1075.887 25zm-8.559 0l13.21-25.005h1.667L1067.33 25zm-8.554 0L1070.32-.005h1.665L1058.777 25zm-8.556 0l13.21-25.005h1.665L1050.22 25zM1040 25l13.21-25.005h1.666L1041.666 25zm-8.558 0l13.21-25.005h1.666L1033.108 25zm-8.554 0l13.21-25.005h1.666L1024.554 25zm-8.554 0l13.207-25.005h1.665L1016 25zm-8.557 0l13.21-25.005h1.665L1007.442 25zm-8.554 0L1010.43-.005h1.665L998.888 25zm-8.558 0l13.21-25.005h1.666L990.33 25zm-8.554 0L993.322-.005h1.665L981.777 25zm-8.557 0l13.21-25.005h1.666L973.218 25zM963 25L976.21-.005h1.665L964.665 25zm231.62 0l13.208-25.005h1.665L1196.284 25zm-8.558 0l13.21-25.005h1.667L1187.728 25zm-8.554 0l13.208-25.005h1.665L1179.174 25zm-8.556 0l13.21-25.005h1.665L1170.617 25zm-8.555 0l13.21-25.005h1.666L1162.063 25zm-8.558 0l13.21-25.005h1.666L1153.505 25zm-8.553 0l13.21-25.005h1.665L1144.951 25zm-8.555 0L1147.94-.005h1.664L1136.397 25zm-8.557 0l13.21-25.005h1.665L1127.839 25zm-8.554 0l13.207-25.005h1.665L1119.285 25zm-8.558 0l13.21-25.005h1.666L1110.728 25zm-8.554 0L1113.72-.005h1.665L1102.174 25zm-8.557 0l13.21-25.005h1.666L1093.615 25zm-8.554 0l13.21-25.005h1.665L1085.062 25zm232.333 0l13.207-25.005h1.665L1317.394 25zm-8.558 0l13.21-25.005h1.666L1308.838 25zm-8.554 0l13.208-25.005h1.664L1300.283 25zm-8.557 0l13.21-25.005h1.665L1291.726 25zm-8.554 0l13.21-25.005h1.666L1283.172 25zm-8.559 0L1286.16-.005h1.666L1274.615 25zm-8.553 0l13.21-25.005h1.666L1266.06 25zm-8.554 0l13.207-25.005h1.665L1257.506 25zm-8.558 0l13.211-25.005h1.665L1248.949 25zm-8.553 0l13.206-25.005h1.666L1240.394 25zm-8.558 0l13.21-25.005h1.665L1231.837 25zm-8.554 0l13.21-25.005h1.666L1223.284 25zm-8.558 0l13.21-25.005h1.666L1214.725 25zm-8.553 0l13.21-25.005h1.665L1206.172 25zm231.62 0l13.207-25.005H1451L1437.79 25zm-8.558 0l13.21-25.005h1.666L1429.235 25zm-8.554 0l13.208-25.005h1.664L1420.68 25zm-8.557 0l13.21-25.005h1.665L1412.123 25zm-8.554 0l13.21-25.005h1.666L1403.569 25zm-8.559 0l13.211-25.005h1.666L1395.012 25zm-8.553 0l13.21-25.005h1.666L1386.458 25zm-8.554 0l13.207-25.005h1.665L1377.903 25zm-8.558 0l13.211-25.005h1.665L1369.346 25zm-8.553 0l13.206-25.005H1374L1360.79 25zm-8.558 0l13.21-25.005h1.665L1352.234 25zm-8.554 0l13.21-25.005h1.666L1343.68 25zm-8.558 0l13.21-25.005h1.666L1335.123 25zm-8.553 0l13.21-25.005h1.665L1326.569 25zm-1213.68 0L124.43-.005h1.666L112.887 25zm-8.559 0l13.21-25.005h1.667L104.33 25zm-8.554 0L107.32-.005h1.665L95.777 25zm-8.556 0L98.765-.005h1.665L87.22 25zM77 25L90.21-.005h1.666L78.666 25zm-8.558 0L81.652-.005h1.666L70.108 25zm-8.554 0L73.098-.005h1.666L61.554 25zm-8.554 0L64.541-.005h1.665L53 25zm-8.557 0L55.987-.005h1.665L44.442 25zm-8.554 0L47.43-.005h1.665L35.887 25zm-8.558 0L38.875-.005h1.666L27.33 25zm-8.554 0L30.322-.005h1.665L18.777 25zm-8.557 0L21.764-.005h1.666L10.218 25zM0 25L13.21-.005h1.665L1.665 25zm231.62 0L244.828-.005h1.665L233.284 25zm-8.558 0l13.21-25.005h1.667L224.728 25zm-8.554 0L227.716-.005h1.665L216.174 25zm-8.556 0l13.21-25.005h1.665L207.617 25zm-8.555 0l13.21-25.005h1.666L199.063 25zm-8.558 0l13.21-25.005h1.666L190.505 25zm-8.553 0l13.21-25.005h1.665L181.951 25zm-8.555 0L184.938-.005h1.665L173.397 25zm-8.557 0l13.21-25.005h1.665L164.839 25zm-8.554 0L167.827-.005h1.665L156.284 25zm-8.558 0l13.21-25.005h1.666L147.728 25zm-8.554 0L150.72-.005h1.665L139.174 25zm-8.557 0L142.16-.005h1.666L130.615 25zm-8.554 0l13.21-25.005h1.665L122.062 25zm232.333 0L365.937-.005h1.665L354.394 25zm-8.558 0l13.21-25.005h1.666L345.838 25zm-8.554 0L348.826-.005h1.664L337.283 25zm-8.557 0l13.21-25.005h1.665L328.726 25zm-8.555 0l13.21-25.005h1.667L320.172 25zm-8.558 0L323.16-.005h1.666L311.615 25zm-8.553 0l13.21-25.005h1.666L303.06 25zm-8.554 0L306.048-.005h1.665L294.506 25zm-8.558 0L297.494-.005h1.664L285.948 25zm-8.553 0L288.936-.005h1.666L277.394 25zm-8.558 0l13.21-25.005h1.665L268.837 25zm-8.554 0l13.21-25.005h1.666L260.284 25zm-8.558 0L263.27-.005h1.666L251.725 25zm-8.553 0l13.21-25.005h1.665L243.172 25zm231.62 0L486.334-.005h1.665L474.791 25zm-8.558 0l13.21-25.005h1.666L466.235 25zm-8.554 0L469.223-.005h1.664L457.68 25zm-8.557 0l13.21-25.005h1.665L449.123 25zm-8.554 0l13.21-25.005h1.666L440.569 25zm-8.559 0L443.556-.005h1.666L432.012 25zm-8.553 0l13.21-25.005h1.666L423.458 25zm-8.554 0L426.445-.005h1.665L414.903 25zm-8.558 0L417.891-.005h1.665L406.346 25zm-8.553 0L409.333-.005H411L397.79 25zm-8.558 0l13.21-25.005h1.665L389.234 25zm-8.554 0l13.21-25.005h1.666L380.68 25zm-8.558 0l13.21-25.005h1.666L372.122 25zm-8.553 0l13.21-25.005h1.665L363.569 25z"/></svg>