<svg xmlns="http://www.w3.org/2000/svg" width="1140" height="9"><g clip-path="url(#clip-87)"><path fill="#fff" d="M196.547 13L188.652-.003h.995L197.542 13zm5.116 0L193.765-.003h.996L202.658 13zm5.113 0L198.881-.003h.995L207.77 13zm5.115 0L203.994-.003h.996L212.887 13zm5.114 0L209.108-.003h.996L218 13zm-92.855 0L116.254-.003h.995L125.145 13zm5.115 0L121.367-.003h.996L130.26 13zm5.113 0L126.483-.003h.996L135.374 13zm5.115 0L131.596-.003h.996L140.489 13zm5.114 0L136.71-.003h.996L145.603 13zm5.116 0L141.826-.003h.995L150.72 13zm5.113 0L146.939-.003h.996L155.832 13zm5.113 0L152.055-.003h.995L160.946 13zm5.116 0L157.17-.003h.995L166.06 13zm5.114 0L162.284-.003h.996L171.174 13zm5.116 0L167.398-.003h.995L176.29 13zm5.112 0L172.511-.003h.995L181.404 13zm5.117 0L177.626-.003h.996L186.52 13zm5.113 0L182.74-.003h.995L191.632 13zM52.178 13L44.282-.003h.995L53.173 13zm5.115 0L49.396-.003h.995L58.288 13zm5.113 0L54.512-.003h.995L63.402 13zm5.116 0L59.625-.003h.995L68.517 13zm5.113 0L64.738-.003h.996L73.631 13zm5.116 0L69.854-.003h.996L78.747 13zm5.114 0L74.968-.003h.995L83.86 13zm5.113 0L80.083-.003h.995L88.974 13zm5.116 0L85.197-.003h.995L94.089 13zm5.113 0L90.312-.003h.996L99.202 13zm5.116 0L95.426-.003h.995L104.318 13zm5.113 0L100.539-.003h.995L109.431 13zm5.116 0L105.655-.003h.995L114.547 13zm5.113 0L110.768-.003h.996L119.66 13zM-14.09 13L-21.987-.003h.996L-13.094 13zm5.114 0L-16.871-.003h.995L-7.98 13zm5.115 0L-11.757-.003h.994L-2.866 13zm5.114 0L-6.645-.003h.996L2.248 13zm5.115 0L-1.529-.003h.996L7.364 13zm5.114 0L3.585-.003h.996L12.477 13zm5.114 0L8.7-.003h.995L17.59 13zm5.115 0L13.814-.003h.995L22.706 13zm5.114 0L18.93-.003h.995L27.82 13zm5.115 0L24.043-.003h.996L32.936 13zm5.113 0L29.156-.003h.996L38.049 13zm5.116 0L34.272-.003h.996L43.165 13zm5.114 0L39.386-.003h.995L48.278 13zm385.264 0L424.651-.003h.996L433.542 13zm5.115 0L429.765-.003h.996L438.658 13zm5.114 0L434.88-.003h.995L443.77 13zm5.115 0L439.994-.003h.996L448.887 13zm5.114 0L445.108-.003h.996L454 13zm-92.855 0L352.254-.003h.995L361.145 13zm5.115 0L357.367-.003h.996L366.26 13zm5.113 0L362.483-.003h.996L371.374 13zm5.115 0L367.596-.003h.996L376.489 13zm5.114 0L372.71-.003h.996L381.603 13zm5.116 0L377.826-.003h.995L386.72 13zm5.113 0L382.939-.003h.996L391.832 13zm5.113 0L388.055-.003h.995L396.946 13zm5.116 0L393.17-.003h.995L402.06 13zm5.114 0L398.283-.003h.997L407.174 13zm5.115 0L403.397-.003h.996L412.29 13zm5.113 0L408.511-.003h.995L417.403 13zm5.117 0L413.626-.003h.996L422.52 13zm5.113 0L418.74-.003h.995L427.632 13zm-138.459 0L280.282-.003h.995L289.173 13zm5.115 0L285.396-.003h.995L294.288 13zm5.113 0L290.512-.003h.995L299.402 13zm5.116 0L295.625-.003h.995L304.517 13zm5.113 0L300.738-.003h.996L309.631 13zm5.116 0L305.854-.003h.996L314.747 13zm5.114 0L310.968-.003h.995L319.86 13zm5.113 0L316.083-.003h.995L324.974 13zm5.116 0L321.197-.003h.995L330.089 13zm5.113 0L326.312-.003h.996L335.202 13zm5.115 0L331.425-.003h.996L340.318 13zm5.114 0L336.539-.003h.995L345.431 13zm5.116 0L341.655-.003h.995L350.547 13zm5.113 0L346.768-.003h.996L355.66 13zM221.91 13L214.013-.003h.996L222.906 13zm5.114 0L219.129-.003h.995L228.019 13zm5.115 0L224.243-.003h.994L233.134 13zm5.114 0L229.355-.003h.996L238.248 13zm5.115 0L234.471-.003h.996L243.364 13zm5.114 0L239.585-.003h.996L248.477 13zm5.113 0L244.701-.003h.995L253.59 13zm5.116 0L249.814-.003h.995L258.706 13zm5.114 0L254.929-.003h.996L263.82 13zm5.115 0L260.043-.003h.995L268.935 13zm5.113 0L265.156-.003h.996L274.049 13zm5.116 0L270.272-.003h.996L279.165 13zm5.114 0L275.386-.003h.995L284.278 13zm385.264 0L660.652-.003h.995L669.542 13zm5.116 0L665.765-.003h.996L674.658 13zm5.113 0L670.881-.003h.995L679.772 13zm5.115 0L675.994-.003h.996L684.887 13zm5.114 0L681.108-.003h.996L690 13zm-92.855 0L588.254-.003h.995L597.145 13zm5.115 0L593.367-.003h.996L602.26 13zm5.113 0L598.483-.003h.996L607.374 13zm5.115 0L603.596-.003h.996L612.489 13zm5.114 0L608.71-.003h.996L617.603 13zm5.116 0L613.826-.003h.995L622.72 13zm5.113 0L618.939-.003h.996L627.832 13zm5.113 0L624.055-.003h.995L632.946 13zm5.116 0L629.17-.003h.995L638.06 13zm5.114 0L634.284-.003h.996L643.174 13zm5.116 0L639.398-.003h.995L648.29 13zm5.112 0L644.511-.003h.995L653.404 13zm5.117 0L649.626-.003h.996L658.52 13zm5.113 0L654.74-.003h.995L663.632 13zm-138.459 0L516.282-.003h.995L525.173 13zm5.115 0L521.396-.003h.995L530.288 13zm5.113 0L526.512-.003h.995L535.402 13zm5.116 0L531.625-.003h.995L540.517 13zm5.113 0L536.738-.003h.996L545.631 13zm5.116 0L541.854-.003h.996L550.747 13zm5.114 0L546.968-.003h.995L555.86 13zm5.113 0L552.083-.003h.995L560.974 13zm5.116 0L557.197-.003h.995L566.089 13zm5.113 0L562.312-.003h.996L571.202 13zm5.116 0L567.426-.003h.995L576.318 13zm5.113 0L572.539-.003h.995L581.432 13zm5.116 0L577.655-.003h.995L586.547 13zm5.113 0L582.768-.003h.996L591.66 13zM457.91 13L450.013-.003h.996L458.906 13zm5.114 0L455.129-.003h.995L464.02 13zm5.115 0L460.243-.003h.994L469.134 13zm5.114 0L465.355-.003h.996L474.248 13zm5.115 0L470.471-.003h.996L479.364 13zm5.114 0L475.585-.003h.996L484.477 13zm5.114 0L480.7-.003h.995L489.59 13zm5.115 0L485.814-.003h.995L494.706 13zm5.114 0L490.93-.003h.995L499.82 13zm5.115 0L496.043-.003h.996L504.936 13zm5.113 0L501.156-.003h.996L510.049 13zm5.116 0L506.272-.003h.996L515.165 13zm5.114 0L511.386-.003h.995L520.278 13zm385.264 0L896.651-.003h.996L905.542 13zm5.115 0L901.765-.003h.996L910.658 13zm5.114 0L906.88-.003h.995L915.77 13zm5.115 0L911.994-.003h.996L920.887 13zm5.114 0L917.108-.003h.996L926 13zm-92.855 0L824.254-.003h.995L833.145 13zm5.115 0L829.367-.003h.996L838.26 13zm5.113 0L834.483-.003h.996L843.374 13zm5.115 0L839.596-.003h.996L848.489 13zm5.114 0L844.71-.003h.996L853.603 13zm5.116 0L849.826-.003h.995L858.72 13zm5.113 0L854.939-.003h.996L863.832 13zm5.113 0L860.055-.003h.995L868.946 13zm5.116 0L865.17-.003h.995L874.06 13zm5.114 0L870.283-.003h.997L879.174 13zm5.115 0L875.397-.003h.996L884.29 13zm5.113 0L880.511-.003h.995L889.403 13zm5.117 0L885.626-.003h.996L894.52 13zm5.113 0L890.74-.003h.995L899.632 13zm-138.459 0L752.282-.003h.995L761.173 13zm5.115 0L757.396-.003h.995L766.288 13zm5.113 0L762.512-.003h.995L771.402 13zm5.116 0L767.625-.003h.995L776.517 13zm5.113 0L772.738-.003h.996L781.631 13zm5.116 0L777.854-.003h.996L786.747 13zm5.114 0L782.968-.003h.995L791.86 13zm5.113 0L788.083-.003h.995L796.974 13zm5.116 0L793.197-.003h.995L802.089 13zm5.113 0L798.312-.003h.996L807.202 13zm5.115 0L803.425-.003h.996L812.318 13zm5.114 0L808.539-.003h.995L817.431 13zm5.116 0L813.655-.003h.995L822.547 13zm5.113 0L818.768-.003h.996L827.66 13zM693.91 13L686.013-.003h.996L694.906 13zm5.114 0L691.129-.003h.995L700.019 13zm5.115 0L696.243-.003h.994L705.134 13zm5.114 0L701.355-.003h.996L710.248 13zm5.115 0L706.471-.003h.996L715.364 13zm5.114 0L711.585-.003h.996L720.477 13zm5.113 0L716.701-.003h.995L725.59 13zm5.116 0L721.814-.003h.995L730.706 13zm5.114 0L726.93-.003h.995L735.82 13zm5.115 0L732.043-.003h.995L740.935 13zm5.113 0L737.156-.003h.996L746.049 13zm5.116 0L742.272-.003h.996L751.165 13zm5.114 0L747.386-.003h.995L756.278 13zm385.264 0l-7.895-13.003h.995L1141.542 13zm5.116 0l-7.898-13.003h.996L1146.658 13zm5.113 0l-7.895-13.003h.995L1151.772 13zm5.115 0l-7.897-13.003h.996L1156.887 13zm5.114 0l-7.897-13.003h.996L1162 13zm-92.855 0l-7.896-13.003h.995L1069.145 13zm5.115 0l-7.898-13.003h.996L1074.26 13zm5.113 0l-7.895-13.003h.996L1079.374 13zm5.115 0l-7.897-13.003h.996L1084.489 13zm5.114 0L1080.71-.003h.996L1089.603 13zm5.116 0l-7.897-13.003h.995L1094.72 13zm5.113 0L1090.94-.003h.996L1099.832 13zm5.114 0l-7.895-13.003h.995L1104.946 13zm5.115 0L1101.17-.003h.995L1110.06 13zm5.114 0l-7.895-13.003h.996L1115.174 13zm5.116 0l-7.897-13.003h.995L1120.29 13zm5.112 0l-7.896-13.003h.995L1125.404 13zm5.117 0l-7.898-13.003h.996L1130.52 13zm5.113 0L1126.74-.003h.995L1135.632 13zm-138.459 0L988.282-.003h.995L997.173 13zm5.115 0L993.396-.003h.995L1002.288 13zm5.113 0L998.512-.003h.995L1007.402 13zm5.116 0l-7.897-13.003h.995L1012.517 13zm5.113 0l-7.897-13.003h.996L1017.631 13zm5.116 0l-7.897-13.003h.996L1022.747 13zm5.114 0l-7.897-13.003h.995L1027.86 13zm5.113 0l-7.895-13.003h.995L1032.974 13zm5.116 0l-7.897-13.003h.995L1038.089 13zm5.113 0l-7.895-13.003h.996L1043.202 13zm5.116 0l-7.897-13.003h.995L1048.318 13zm5.113 0l-7.897-13.003h.996L1053.432 13zm5.116 0l-7.897-13.003h.995L1058.547 13zm5.113 0l-7.897-13.003h.996L1063.66 13zM929.91 13L922.013-.003h.996L930.906 13zm5.114 0L927.129-.003h.995L936.02 13zm5.115 0L932.243-.003h.994L941.134 13zm5.114 0L937.355-.003h.996L946.248 13zm5.115 0L942.471-.003h.996L951.364 13zm5.114 0L947.585-.003h.996L956.477 13zm5.114 0L952.7-.003h.995L961.59 13zm5.115 0L957.814-.003h.995L966.706 13zm5.114 0L962.93-.003h.995L971.82 13zm5.115 0L968.043-.003h.996L976.936 13zm5.113 0L973.156-.003h.996L982.049 13zm5.116 0L978.272-.003h.996L987.165 13zm5.114 0L983.386-.003h.995L992.278 13z"/></g></svg>